<?xml version="1.0" encoding="UTF-8"?>
<!-- Generator: Adobe Illustrator 21.0.0, SVG Export Plug-In . SVG Version: 6.00 Build 0)  -->
<svg version="1.1" id="Lag_2" xmlns="http://www.w3.org/2000/svg" xmlns:xlink="http://www.w3.org/1999/xlink" x="0px" y="0px" viewBox="0 0 308.4 76.9" style="enable-background:new 0 0 308.4 76.9;" xml:space="preserve">
<style type="text/css">
	.st0{fill:#FFFFFF;}
	.st1{fill:#CD1719;}
	.st2{fill:#FFDD00;}
	.st3{fill:#1D1D1B;}
	.st4{fill:#00502D;}
</style>
<g>
	<g>
		<path class="st0" d="M276,76.6c23.8,0,30.4-17,29.9-31.1c-0.1-11.9-0.8-28.4,2.2-40.5c-10.7-4.1-24.6-4.7-32-4.7h0.1    c-7.4,0-21.4,0.6-32,4.7c2.9,12.1,2.3,28.6,2.2,40.5c-0.5,14.1,6.1,31.1,29.9,31.1H276z"/>
		<path class="st1" d="M247.6,56.6c2.8,10.5,11,19.8,28.6,19.8H276c17.6,0,25.7-9.3,28.6-19.8H300v-5.3h-8.2v5.3h-11.2v-5.3h-8.3    l0,5.3h-12.2l0-5.3l-8.3,0v5.3H247.6z"/>
		<path class="st2" d="M276.1,72.4c2.5,0,5.7-0.1,8.1-0.8c0-6-0.2-8.2,3.6-9.7v-0.2c-2-1-3.5-0.6-4.4,0.5c-0.9-0.5-1.7,0.1-1.7,0.9    c1.3,0,2,1.3,1.2,2.3c-0.8,1-2.3,0.4-2.5-0.8h-0.2c-0.3,1.3-2.2,1.4-2.7,0.1c-0.5-1.2,0.5-2.2,1.9-2c0-1.5-1.4-1.6-2.2-1.3    c0.4-1.6-0.6-2.6-1.3-3c-0.7,0.4-1.8,1.4-1.3,3c-0.7-0.4-2.1-0.3-2.2,1.3c1.5-0.2,2.4,0.8,1.9,2c-0.5,1.3-2.4,1.3-2.7-0.1h-0.2    c-0.2,1.2-1.7,1.8-2.5,0.8c-0.8-1-0.1-2.3,1.2-2.3c0-0.8-0.8-1.4-1.7-0.9c-0.9-1.1-2.4-1.5-4.4-0.5v0.2c3.9,1.5,3.6,3.7,3.6,9.7    C270.4,72.3,273.6,72.4,276.1,72.4z"/>
		<path class="st3" d="M288,61.4c-0.8-0.4-1.5-0.6-2.3-0.6c-0.9,0-1.7,0.3-2.3,1c-0.5-0.2-1.1-0.1-1.5,0.3c-0.2,0.2-0.4,0.6-0.4,0.9    l0,0.2l0.2,0h0c0.5,0,1,0.3,1.2,0.7c0.2,0.4,0.1,0.8-0.2,1.2c-0.3,0.3-0.6,0.4-0.8,0.4c-0.5,0-1.1-0.4-1.2-1.1l0-0.2h-0.6l0,0.2    c-0.1,0.6-0.6,0.8-1.1,0.8c-0.5,0-1-0.3-1.2-0.8c-0.2-0.4-0.1-0.8,0.1-1.1c0.3-0.4,0.9-0.6,1.6-0.5l0.3,0l0-0.3    c0-1.2-0.8-1.7-1.6-1.7c-0.2,0-0.3,0-0.5,0.1c0.2-1.6-1-2.5-1.5-2.8l-0.1-0.1l-0.1,0.1c-0.6,0.3-1.7,1.2-1.5,2.8    c-0.2,0-0.3-0.1-0.5-0.1c-0.8,0-1.6,0.4-1.6,1.7l0,0.3l0.3,0c0.7-0.1,1.3,0.1,1.6,0.5c0.2,0.3,0.2,0.7,0.1,1.1    c-0.2,0.5-0.6,0.8-1.2,0.8c-0.4,0-0.9-0.2-1.1-0.8l0-0.2h-0.6l0,0.2c-0.1,0.7-0.7,1.1-1.2,1.1c-0.2,0-0.6-0.1-0.8-0.4    c-0.3-0.4-0.4-0.8-0.2-1.2c0.2-0.4,0.6-0.7,1.2-0.7h0l0.2,0l0-0.2c0-0.3-0.1-0.7-0.4-0.9c-0.4-0.4-0.9-0.5-1.5-0.3    c-0.6-0.7-1.4-1-2.3-1c-0.7,0-1.5,0.2-2.3,0.6l-0.1,0.1V62l0.1,0.1c3.5,1.4,3.5,3.2,3.5,8.6c0,0.3,0,1.1,0,1.1l0.2,0    c2.6,0.7,5.9,0.8,8.2,0.8c2.3,0,5.6-0.1,8.2-0.8l0.2,0c0,0,0-0.8,0-1.1c0-5.4,0-7.2,3.5-8.6l0.1-0.1v-0.5L288,61.4z M268.1,67.4    c4.3-0.5,7.6-0.5,8-0.5c0.4,0,3.7,0,8,0.5c0,0.9,0,2,0,3.2c0,0.1,0,0.1,0,0.2c-1.9-0.2-4.6-0.4-7.9-0.4c0,0,0,0,0,0H276    c0,0,0,0,0,0c-3.2,0-6,0.2-7.9,0.4c0-0.1,0-0.1,0-0.2C268.1,69.4,268.1,68.3,268.1,67.4z M276.1,72.1c-2.2,0-5.4-0.1-7.9-0.8    c0,0,0-0.1,0-0.1c1.9-0.2,4.6-0.4,7.9-0.4c0,0,0,0,0,0h0.1c0,0,0,0,0,0c3.2,0,6,0.2,7.9,0.4c0,0,0,0.1,0,0.1    C281.4,72.1,278.2,72.1,276.1,72.1z M284,66.9c-4.3-0.5-7.6-0.5-8-0.5c-0.4,0-3.7,0-8,0.5c-0.2-2.7-0.9-4.1-3.5-5.2    c1.6-0.7,3-0.5,3.9,0.7c0,0,0.8-0.5,1.3-0.1c0.1,0.1,0.2,0.2,0.2,0.4c-0.6,0.1-1.1,0.4-1.3,0.9c-0.3,0.6-0.2,1.2,0.3,1.7    c0.3,0.4,0.7,0.6,1.2,0.6h0c0.7,0,1.3-0.4,1.6-1.1c0.3,0.5,0.8,0.8,1.4,0.8c0.7,0,1.3-0.4,1.6-1.1c0.2-0.6,0.2-1.1-0.1-1.6    c-0.4-0.5-1-0.8-1.8-0.8c0.1-0.9,0.8-1,1.1-1c0.7,0,1.2,0.5,1.2,0.5s-0.8-2.1,1-3.2c1.8,1.1,1,3.2,1,3.2s0.4-0.5,1.2-0.5    c0.3,0,1,0.1,1.1,1c-0.8,0-1.4,0.2-1.8,0.8c-0.3,0.4-0.4,1-0.1,1.6c0.3,0.7,0.9,1.1,1.6,1.1c0.6,0,1.1-0.3,1.4-0.8    c0.3,0.6,0.9,1.1,1.6,1.1h0c0.5,0,0.9-0.2,1.2-0.6c0.4-0.5,0.5-1.2,0.3-1.7c-0.2-0.5-0.7-0.9-1.3-0.9c0-0.1,0.1-0.3,0.2-0.4    c0.6-0.5,1.3,0.1,1.3,0.1c0.9-1.2,2.3-1.5,3.9-0.7C284.9,62.8,284.2,64.2,284,66.9z"/>
		
			<ellipse transform="matrix(6.977373e-02 -0.9976 0.9976 6.977373e-02 192.7151 344.221)" class="st0" cx="280.9" cy="68.8" rx="0.9" ry="1.3"/>
		<path class="st3" d="M281,69.9c0,0-0.1,0-0.1,0c-0.4,0-0.8-0.2-1-0.4c-0.3-0.2-0.4-0.5-0.4-0.9c0-0.6,0.8-1.1,1.6-1    c0.4,0,0.8,0.2,1,0.4c0.3,0.2,0.4,0.5,0.4,0.9C282.4,69.5,281.8,69.9,281,69.9z M280.9,68.1c-0.6,0-1,0.3-1,0.6    c0,0.2,0.1,0.3,0.3,0.5c0.2,0.2,0.5,0.3,0.8,0.3c0.6,0,1.1-0.2,1.2-0.6c0-0.2-0.1-0.3-0.3-0.5c-0.2-0.2-0.5-0.3-0.8-0.3    C280.9,68.1,280.9,68.1,280.9,68.1z"/>
		<polygon class="st0" points="276.1,69.7 277.8,68.6 276.1,67.5 274.3,68.6   "/>
		<path class="st3" d="M276.1,70l-2.1-1.3l2.1-1.3l2.1,1.3L276.1,70z M274.8,68.6l1.3,0.8l1.3-0.8l-1.3-0.8L274.8,68.6z"/>
		
			<ellipse transform="matrix(0.9976 -6.977373e-02 6.977373e-02 0.9976 -4.138 19.0898)" class="st0" cx="271.2" cy="68.8" rx="1.3" ry="0.9"/>
		<path class="st3" d="M271.1,69.9L271.1,69.9c-0.8,0-1.4-0.4-1.5-1c0-0.3,0.1-0.6,0.4-0.9c0.3-0.2,0.6-0.4,1-0.4    c0.9-0.1,1.6,0.4,1.6,1c0,0.3-0.1,0.6-0.4,0.9c-0.3,0.2-0.6,0.4-1,0.4C271.2,69.9,271.2,69.9,271.1,69.9z M271.3,68.1    c0,0-0.1,0-0.1,0c-0.3,0-0.6,0.1-0.8,0.3c-0.2,0.1-0.3,0.3-0.3,0.5c0,0.4,0.5,0.6,1,0.6l0,0c0,0,0.1,0,0.1,0    c0.3,0,0.6-0.1,0.8-0.3c0.2-0.1,0.3-0.3,0.3-0.5C272.3,68.4,271.8,68.1,271.3,68.1z"/>
		<path class="st4" d="M248,12c1,0.3,1.5-0.8,3.4-0.8c2.3,0,3.7,2.7,1.2,3.6c0.5,2.6-2.7,2.7-3.7,0.7c-0.9-1.6-0.2-2.7-0.9-3.3    L248,12z"/>
		<path class="st4" d="M248.7,22.5c0.9-0.5,0.5-1.6,1.7-3c1.5-1.7,4.5-0.9,3.5,1.6c2.2,1.4,0.2,3.8-2.1,3.2    c-1.8-0.5-2.1-1.7-3.1-1.6L248.7,22.5z"/>
		<path class="st4" d="M261,11.6c0,1,1.3,1.1,2,2.9c0.9,2.1-1.2,4.5-2.9,2.4c-2.3,1.4-3.5-1.5-2-3.2c1.2-1.4,2.4-1.1,2.8-2.1    L261,11.6z"/>
		<path class="st4" d="M275.4,9c-0.8,0.6-0.3,1.7-1.3,3.2c-1.3,1.9-4.4,1.4-3.6-1.1c-2.4-1.2-0.6-3.8,1.7-3.4    c1.8,0.3,2.3,1.4,3.3,1.2L275.4,9z"/>
		<path class="st4" d="M265.9,2.5c0.2,1,1.4,0.9,2.4,2.5c1.2,2-0.5,4.6-2.5,2.8c-2,1.7-3.7-1-2.4-2.9c1-1.6,2.2-1.5,2.4-2.5    L265.9,2.5z"/>
		<path class="st4" d="M253.8,7c1,0.1,1.3-1.1,3.1-1.5c2.2-0.6,4.2,1.8,2,3.2c1,2.4-2,3.2-3.5,1.5c-1.2-1.4-0.8-2.6-1.7-3L253.8,7z"/>
		<path class="st4" d="M284.2,16.5c-0.8,0.5-0.3,1.7-1.5,3.2c-1.4,1.8-4.4,1.2-3.6-1.3c-2.3-1.2-0.5-3.8,1.8-3.4    c1.8,0.3,2.2,1.5,3.2,1.3L284.2,16.5z"/>
		<path class="st4" d="M304.1,12c-1,0.3-1.5-0.8-3.4-0.8c-2.3,0-3.7,2.7-1.2,3.6c-0.5,2.6,2.7,2.7,3.7,0.7c0.9-1.6,0.2-2.7,0.9-3.3    L304.1,12z"/>
		<path class="st4" d="M303.4,22.5c-0.9-0.5-0.5-1.6-1.7-3c-1.5-1.7-4.5-0.9-3.5,1.6c-2.2,1.4-0.2,3.8,2.1,3.2    c1.8-0.5,2.1-1.7,3.1-1.6L303.4,22.5z"/>
		<path class="st4" d="M291.1,11.6c0,1-1.3,1.1-2,2.9c-0.9,2.1,1.2,4.5,2.9,2.4c2.3,1.4,3.5-1.5,2-3.2c-1.2-1.4-2.4-1.1-2.8-2.1    L291.1,11.6z"/>
		<path class="st4" d="M276.7,9c0.8,0.6,0.3,1.7,1.3,3.2c1.3,1.9,4.4,1.4,3.6-1.1c2.4-1.2,0.6-3.8-1.7-3.4c-1.8,0.3-2.3,1.4-3.3,1.2    L276.7,9z"/>
		<path class="st4" d="M286.2,2.5c-0.2,1-1.4,0.9-2.4,2.5c-1.2,2,0.5,4.6,2.5,2.8c2,1.7,3.7-1,2.4-2.9c-1-1.6-2.2-1.5-2.4-2.5    L286.2,2.5z"/>
		<path class="st4" d="M298.3,7c-1,0.1-1.3-1.1-3.1-1.5c-2.2-0.6-4.2,1.8-2,3.2c-1,2.4,2,3.2,3.5,1.5c1.2-1.4,0.8-2.6,1.7-3L298.3,7    z"/>
		<path class="st4" d="M267.9,16.5c0.8,0.5,0.3,1.7,1.5,3.2c1.4,1.8,4.4,1.2,3.6-1.3c2.3-1.2,0.5-3.8-1.8-3.4    c-1.8,0.3-2.2,1.5-3.2,1.3L267.9,16.5z"/>
		<path class="st0" d="M254.8,47.8l-0.8,2.2c-2.3,0-3.2,0.1-3.4,0.7c-0.3,0.9,0.1,2.1,1.1,2.6v-1.9h1c0,1.4,1.2,1.9,1.2,1.9v-1.9    h1.9v1.8c0.9-0.5,1.4-1.1,1.2-2.3c-0.1-0.4-0.3-0.8-1.7-0.8l0.8-1.9L254.8,47.8z"/>
		<path class="st1" d="M254.9,31.3c0-2.1-0.3-3.3-2.1-3.3c-1,0-1.8,0.6-1.8,1.4c0,0.6,0.1,1.2,1,1.9H254.9z"/>
		<polygon class="st3" points="253.2,36.4 251.9,36.2 252,35.8 252.8,35.9 252.9,35 253.3,35.1   "/>
		<polygon class="st3" points="258.9,41.3 257.6,41 257.6,40.6 258.5,40.7 258.6,39.9 259,40   "/>
		<polygon class="st3" points="260.3,43.3 259,43.1 259,42.7 259.9,42.8 260,41.9 260.4,42   "/>
		<polygon class="st3" points="254.9,34.5 253.6,34.2 253.7,33.8 254.5,33.9 254.6,33.1 255,33.1   "/>
		<polygon class="st3" points="254.6,38.8 253.3,38.6 253.3,38.2 254.2,38.3 254.3,37.4 254.7,37.5   "/>
		<polygon class="st3" points="256.2,36.6 254.9,36.4 254.9,36 255.8,36.1 255.9,35.2 256.3,35.3   "/>
		<polygon class="st3" points="257.5,38.8 256.2,38.5 256.3,38.1 257.1,38.2 257.2,37.4 257.6,37.5   "/>
		<polygon class="st3" points="256.6,40.7 255.4,40.5 255.4,40.1 256.2,40.2 256.4,39.4 256.7,39.4   "/>
		<path class="st0" d="M275.3,47.8l-0.8,2.2c-2.3,0-3.2,0.1-3.4,0.7c-0.3,0.9,0.1,2.1,1.1,2.6v-1.9h1c0,1.4,1.2,1.9,1.2,1.9v-1.9    h1.9v1.8c0.9-0.5,1.4-1.1,1.2-2.3c-0.1-0.4-0.3-0.8-1.7-0.8l0.8-1.9L275.3,47.8z"/>
		<path class="st1" d="M275.4,31.3c0-2.1-0.3-3.3-2.1-3.3c-1,0-1.8,0.6-1.8,1.4c0,0.6,0.1,1.2,1,1.9H275.4z"/>
		<polygon class="st3" points="273.8,36.4 272.5,36.2 272.5,35.8 273.4,35.9 273.5,35 273.9,35.1   "/>
		<polygon class="st3" points="279.4,41.3 278.1,41 278.2,40.6 279,40.7 279.1,39.9 279.5,40   "/>
		<polygon class="st3" points="280.8,43.3 279.5,43.1 279.6,42.7 280.4,42.8 280.5,41.9 280.9,42   "/>
		<polygon class="st3" points="275.4,34.5 274.1,34.2 274.2,33.8 275,33.9 275.2,33.1 275.5,33.1   "/>
		<polygon class="st3" points="275.1,38.8 273.8,38.6 273.9,38.2 274.7,38.3 274.8,37.4 275.2,37.5   "/>
		<polygon class="st3" points="276.7,36.6 275.4,36.4 275.5,36 276.3,36.1 276.4,35.2 276.8,35.3   "/>
		<polygon class="st3" points="278.1,38.8 276.8,38.5 276.8,38.1 277.7,38.2 277.8,37.4 278.2,37.5   "/>
		<polygon class="st3" points="277.2,40.7 275.9,40.5 275.9,40.1 276.8,40.2 276.9,39.4 277.3,39.4   "/>
		<path class="st0" d="M294.7,47.8l-0.8,2.2c-2.3,0-3.2,0.1-3.4,0.7c-0.3,0.9,0.1,2.1,1.1,2.6v-1.9h1c0,1.4,1.2,1.9,1.2,1.9v-1.9    h1.9v1.8c0.9-0.5,1.4-1.1,1.2-2.3c-0.1-0.4-0.3-0.8-1.7-0.8l0.8-1.9L294.7,47.8z"/>
		<path class="st1" d="M294.8,31.3c0-2.1-0.3-3.3-2.1-3.3c-1,0-1.8,0.6-1.8,1.4c0,0.6,0.1,1.2,1,1.9H294.8z"/>
		<polygon class="st3" points="293.1,36.4 291.9,36.2 291.9,35.8 292.7,35.9 292.9,35 293.2,35.1   "/>
		<polygon class="st3" points="298.8,41.3 297.5,41 297.6,40.6 298.4,40.7 298.5,39.9 298.9,40   "/>
		<polygon class="st3" points="300.2,43.3 298.9,43.1 298.9,42.7 299.8,42.8 299.9,41.9 300.3,42   "/>
		<polygon class="st3" points="294.8,34.5 293.5,34.2 293.6,33.8 294.4,33.9 294.5,33.1 294.9,33.1   "/>
		<polygon class="st3" points="294.5,38.8 293.2,38.6 293.2,38.2 294.1,38.3 294.2,37.4 294.6,37.5   "/>
		<polygon class="st3" points="296.1,36.6 294.8,36.4 294.8,36 295.7,36.1 295.8,35.2 296.2,35.3   "/>
		<polygon class="st3" points="297.4,38.8 296.2,38.5 296.2,38.1 297,38.2 297.2,37.4 297.5,37.5   "/>
		<polygon class="st3" points="296.6,40.7 295.3,40.5 295.3,40.1 296.2,40.2 296.3,39.4 296.7,39.4   "/>
		<path class="st3" d="M308.4,4.9l-0.3-0.1C297.6,0.6,283.5,0,276.1,0H276c-7.4,0-21.5,0.6-32.1,4.7l-0.3,0.1l0.1,0.3    c2.6,10.7,2.4,24.8,2.2,36.2c0,1.5,0,2.9-0.1,4.2c-0.2,5.5,0.6,15.7,7.8,23.2c5.2,5.4,12.7,8.2,22.3,8.2l0.2,0v0    c9.6,0,17-2.8,22.3-8.2c7.2-7.5,8-17.7,7.8-23.2c0-1.4,0-2.8-0.1-4.2c-0.2-11.4-0.4-25.5,2.2-36.2L308.4,4.9z M247.8,56.8h8.2v6    h-5.8C249.2,60.9,248.4,58.8,247.8,56.8z M250.6,30.9c-0.6-0.1-1-0.1-1.4,0c0.3-1.1,1.2-1.3,1.5-1.3c0,0.6,0.2,1.1,1.1,1.9l0.1,0    h2.7c0,0,0,0,0,0c0,0.1,0,0.1,0,0.2c0,0.3,0.1,0.4,0.3,0.7c1.7,1.7,6.7,10.7,8.5,14.4l-0.1,0c-0.7-0.5-5.1-3.5-8.4-5.8    c-2.8-1.9-3.4-2.5-3.3-4.1l-0.4,0c-0.1,2,0.8,2.7,3.4,4.5c1.4,0.9,2.9,2,4.3,2.9l5,8.8l-0.3,0c-0.6-0.7-5.1-5.5-6.9-7.4    c-1.3-1.3-2.7-2.2-3.7-2.9c-0.6-0.4-1.3-0.8-1.7-1.2c-1.7-1.4-1.9-3.4-1.9-4.8c0.1-1.9,0.8-3.6,1.4-4.6l0-0.1l0-1L250.6,30.9z     M251.2,29.4c0-0.6,0.8-1.1,1.6-1.1c1.5,0,1.9,0.9,1.9,2.9h-2.6C251.2,30.4,251.2,30,251.2,29.4z M255.1,31.6    c0-0.3,0.3-0.6,0.6-0.6s0.6,0.3,0.6,0.6c0,0.3-0.3,0.6-0.6,0.6S255.1,31.9,255.1,31.6z M256.4,46.1l0.1,1.8l-1.9-0.3    c-0.9-1.9-1.5-3.3-1.8-4.1C254,44.1,255.2,44.9,256.4,46.1z M259.8,51.6v4.8h-7.7v-4.8h0.5c0.2,1.3,1.3,1.8,1.4,1.8l0.3,0.1v-1.9    h1.4v1.9l0.3-0.2c0.8-0.4,1.2-1,1.3-1.7H259.8z M253,51.1h-1.5v1.8c-0.7-0.5-0.9-1.4-0.7-2.1c0.1-0.5,1.1-0.6,3.2-0.6h0.2l0.8-2.1    l0.9,0.2l-0.8,2h0.3c1.4,0,1.4,0.3,1.5,0.6c0,0.1,0,0.2,0,0.3c0,1-0.4,1.3-0.8,1.6v-1.6h-2.3v1.7C253.5,52.6,253,52.1,253,51.1z     M254.2,68.3c-1.5-1.5-2.7-3.2-3.7-5h8.8v6h-4.1C254.9,69,254.5,68.7,254.2,68.3z M276.1,76.3c-8.4,0-15.2-2.2-20.2-6.4h8.6v-0.5    h-4.6v-6h1.9v-0.5h-5.2v-6h38.9v6h-5.3v0.5h2v6h-4.7v0.5h8.8C291.3,74.1,284.5,76.3,276.1,76.3z M265.6,7.7    c-0.4,0.3-0.8,0.5-1.1,0.5c-0.5,0-0.9-0.3-1.1-0.7c-0.4-0.7-0.3-1.6,0.1-2.4c0.5-0.8,1-1.1,1.5-1.4c0.3-0.2,0.7-0.4,0.8-0.8    c0.2,0.3,0.5,0.5,0.8,0.8c0.5,0.3,1,0.7,1.4,1.4c0.4,0.7,0.5,1.7,0.1,2.4c-0.3,0.5-0.7,0.7-1.1,0.7c-0.4,0-0.8-0.2-1.2-0.5    l-0.1-0.1L265.6,7.7z M277.9,51.1c0-0.1,0-0.2,0-0.4c-0.1-0.6-0.4-0.9-1.6-1l0.6-1.5l0.5,0.1c0,0,0,0,0,0c0.1,0,0.1,0,0.1-0.1    c0.1,0,0.1-0.1,0.1-0.2l-0.1-1.5c2.2,2.2,6.5,6.9,6.5,7c0,0,0.1,0.1,0.2,0.1c0,0,0,0,0,0l0.7-0.1c0.1,0,0.1-0.1,0.2-0.1    c0-0.1,0-0.1,0-0.2l-4.7-8.3c1.9,1.3,3.4,2.4,3.4,2.4c0,0,0.1,0,0.1,0c0,0,0.1,0,0.1,0l0.4-0.2c0.1,0,0.1-0.1,0.1-0.1    c0-0.1,0-0.1,0-0.2c-1.6-3.2-6.2-11.6-8.3-14.2c0.6,0,1-0.5,1-1.1c0-0.6-0.5-1.1-1.1-1.1c-0.2,0-0.4,0.1-0.6,0.2    c-0.1-1.5-0.4-2.8-2.1-2.9c0.2-0.5,0.7-0.6,1-0.6l0-0.5c-0.2,0-0.6,0.1-0.9,0.3c0.2-0.7,0.6-0.9,1-0.9l-0.1-0.5    c-0.6,0.1-1,0.4-1.3,0.9c-0.2-0.5-0.6-0.8-1.3-0.9l-0.1,0.5c0.4,0.1,0.8,0.2,1,0.9c-0.3-0.3-0.7-0.3-0.9-0.3l0,0.5    c0.4,0,0.8,0.1,1,0.6c-0.9,0.1-1.6,0.7-1.7,1.4c-0.9,0-1.9,0.6-2,2.3l0.3,0.1c0.1-0.1,0.4-0.4,1.5-0.3l0.1,0l0,0.9    c-0.7,1-1.4,2.8-1.4,4.7c-0.1,1.5,0.2,3.6,2,5.1c0.3,0.3,0.9,0.6,1.3,0.9c0.2,0.9,1.4,3.4,2,4.8c0,0.1,0.1,0.1,0.1,0.1l-0.6,1.8    c-2.2,0-3.2,0.1-3.4,0.9c-0.3,0.9,0,2.2,1.1,2.8v3h-5.8V38c0-5.1,1.2-9.3,3.6-12.7c1.6-2.1,3.6-3.9,6.2-5.3    c2.5,1.4,4.6,3.1,6.2,5.3c2.4,3.3,3.6,7.6,3.6,12.7v18.4h-5v-5.3H277.9z M271.2,30.9c-0.6-0.1-1-0.1-1.4,0    c0.3-1.1,1.2-1.3,1.5-1.3c0,0.6,0.2,1.1,1.1,1.9l0.1,0h2.7c0,0,0,0,0,0c0,0.1,0,0.1,0,0.2c0,0.3,0.1,0.4,0.3,0.7    c1.7,1.7,6.7,10.7,8.5,14.4l-0.1,0c-0.7-0.5-5.1-3.5-8.4-5.8c-2.8-1.9-3.4-2.5-3.3-4.1l-0.4,0c-0.1,2,0.8,2.7,3.4,4.5    c1.4,0.9,2.9,2,4.3,2.9l5,8.8l-0.3,0c-0.6-0.7-5.1-5.5-6.9-7.4c-1.3-1.3-2.7-2.2-3.7-2.9c-0.6-0.4-1.3-0.8-1.7-1.2    c-1.7-1.4-1.9-3.4-1.9-4.8c0.1-1.9,0.8-3.6,1.4-4.6l0-0.1l0-1L271.2,30.9z M271.7,29.4c0-0.6,0.8-1.1,1.6-1.1    c1.5,0,1.9,0.9,1.9,2.9h-2.6C271.8,30.4,271.7,30,271.7,29.4z M275.6,31.6c0-0.3,0.3-0.6,0.6-0.6c0.3,0,0.6,0.3,0.6,0.6    c0,0.3-0.3,0.6-0.6,0.6C275.9,32.2,275.6,31.9,275.6,31.6z M277,46.1l0.1,1.8l-1.9-0.3c-0.9-1.9-1.5-3.3-1.8-4.1    C274.6,44.1,275.8,44.9,277,46.1z M276.7,51.1h-2.3v0v1.7c-0.3-0.2-0.8-0.7-0.8-1.7l-1.5,0v1.8c-0.7-0.5-0.9-1.4-0.7-2.1    c0.1-0.5,1.1-0.6,3.2-0.6h0.2l0.8-2.1l0.9,0.2l-0.8,2h0.3c1.4,0,1.4,0.3,1.5,0.6c0,0.1,0,0.2,0,0.3c0,1-0.4,1.3-0.8,1.6V51.1     M276.2,51.6v1.9l0.3-0.2c0.8-0.4,1.2-1,1.3-1.7h2.4v4.8h-7.7v-4.8h0.5c0.2,1.3,1.3,1.8,1.4,1.8l0.3,0.1v-1.9H276.2z M286.2,7.7    c-0.4,0.3-0.8,0.5-1.2,0.5c-0.4,0-0.8-0.3-1.1-0.7c-0.4-0.7-0.4-1.6,0.1-2.4c0.5-0.8,1-1.1,1.4-1.4c0.3-0.2,0.6-0.5,0.8-0.8    c0.2,0.3,0.5,0.5,0.8,0.8c0.5,0.3,1,0.6,1.5,1.4c0.5,0.7,0.5,1.7,0.1,2.4c-0.3,0.5-0.7,0.7-1.1,0.7c-0.4,0-0.7-0.2-1.1-0.5    l-0.1-0.1L286.2,7.7z M290.6,30.9c-0.6-0.1-1-0.1-1.4,0c0.3-1.1,1.2-1.3,1.5-1.3c0,0.6,0.2,1.1,1.1,1.9l0.1,0h2.7c0,0,0,0,0,0    c0,0.1,0,0.1,0,0.2c0,0.3,0.1,0.4,0.3,0.7c1.7,1.7,6.7,10.7,8.5,14.4l-0.1,0c-0.7-0.5-5.1-3.5-8.4-5.8c-2.8-1.9-3.4-2.5-3.3-4.1    l-0.4,0c-0.1,2,0.8,2.7,3.4,4.5c1.4,0.9,2.9,2,4.3,2.9l5,8.8l-0.3,0c-0.6-0.7-5.1-5.5-6.9-7.4c-1.3-1.3-2.7-2.2-3.7-2.9    c-0.6-0.4-1.3-0.8-1.7-1.2c-1.7-1.4-1.9-3.4-1.9-4.8c0.1-1.9,0.8-3.6,1.4-4.6l0-0.1l0-1L290.6,30.9z M291.1,29.4    c0-0.6,0.8-1.1,1.6-1.1c1.5,0,1.9,0.9,1.9,2.9H292C291.2,30.4,291.1,30,291.1,29.4z M295,31.6c0-0.3,0.3-0.6,0.6-0.6    s0.6,0.3,0.6,0.6c0,0.3-0.3,0.6-0.6,0.6S295,31.9,295,31.6z M296.4,46.1l0.1,1.8l-1.9-0.3c-0.9-1.9-1.5-3.3-1.8-4.1    C293.9,44.1,295.1,44.9,296.4,46.1z M299.7,51.6v4.8H292v-4.8h0.5c0.2,1.3,1.3,1.8,1.4,1.8l0.3,0.1v-1.9h1.4v1.9l0.3-0.2    c0.8-0.4,1.2-1,1.3-1.7H299.7z M296.8,51.1c0,1-0.4,1.3-0.8,1.6v-1.6h-2.3v1.7c-0.3-0.2-0.8-0.7-0.8-1.7h-1.5v1.8    c-0.7-0.5-0.9-1.4-0.7-2.1c0.1-0.5,1.1-0.6,3.2-0.6h0.2l0.8-2.1l0.9,0.2l-0.8,2h0.3c1.4,0,1.4,0.3,1.5,0.6    C296.8,50.9,296.8,51,296.8,51.1L296.8,51.1z M297.9,68.3c-0.4,0.4-0.7,0.7-1.1,1.1v0h-4.2v-6h8.9    C300.6,65.1,299.4,66.7,297.9,68.3z M301.9,62.8H296v-6h8.3C303.7,58.8,303,60.9,301.9,62.8z M305.5,41.3c0,1.5,0,2.9,0.1,4.2    c0.1,2.7-0.1,6.6-1.1,10.8h-4.2v-5.3h-2.9c0-0.1,0-0.2,0-0.4c-0.1-0.6-0.4-0.9-1.6-1l0.6-1.5l0.5,0.1c0,0,0,0,0,0    c0.1,0,0.1,0,0.1-0.1c0.1,0,0.1-0.1,0.1-0.2l-0.1-1.5c2.2,2.2,6.5,6.9,6.5,7c0,0,0.1,0.1,0.2,0.1c0,0,0,0,0,0l0.7-0.1    c0.1,0,0.1-0.1,0.2-0.1c0-0.1,0-0.1,0-0.2l-4.7-8.3c1.9,1.3,3.4,2.4,3.4,2.4c0,0,0.1,0,0.1,0c0,0,0.1,0,0.1,0l0.4-0.2    c0.1,0,0.1-0.1,0.1-0.1c0-0.1,0-0.1,0-0.2c-1.6-3.2-6.2-11.6-8.3-14.2c0.6,0,1-0.5,1-1.1c0-0.6-0.5-1.1-1.1-1.1    c-0.2,0-0.4,0.1-0.6,0.2c-0.1-1.5-0.4-2.8-2.1-2.9c0.2-0.5,0.7-0.6,1-0.6l0-0.5c-0.2,0-0.6,0.1-0.9,0.3c0.2-0.7,0.6-0.9,1-0.9    l-0.1-0.5c-0.6,0.1-1,0.4-1.3,0.9c-0.2-0.5-0.6-0.8-1.3-0.9l-0.1,0.5c0.4,0.1,0.8,0.2,1,0.9c-0.3-0.3-0.7-0.3-0.9-0.3l0,0.5    c0.4,0,0.8,0.1,1,0.6c-0.9,0.1-1.6,0.7-1.7,1.4c-0.9,0-1.9,0.6-2,2.3l0.3,0.1c0.1-0.1,0.4-0.4,1.5-0.3l0.1,0l0,0.9    c-0.7,1-1.4,2.8-1.4,4.7c-0.1,1.5,0.2,3.6,2,5.1c0.3,0.3,0.9,0.6,1.3,0.9c0.2,0.9,1.4,3.4,2,4.8c0,0.1,0.1,0.1,0.1,0.1l-0.6,1.8    c-2.2,0-3.2,0.1-3.4,0.9c-0.3,0.9,0,2.2,1.1,2.8v3h-4.8V38.5c0-5.1,0.7-9.3,2.4-12.8c2-4,4.6-5.4,8.7-4.6    c-0.6,0.5-0.8,1.2-0.6,1.8c0.3,0.9,1.3,1.6,2.4,1.6h0c0.3,0,0.5,0,0.8-0.1c1-0.3,1.5-0.7,1.9-1.1c0.4-0.3,0.7-0.5,1.1-0.5l0.2,0    l0.2-0.5l-0.2-0.1c-0.4-0.2-0.5-0.5-0.6-1c-0.2-0.5-0.4-1.2-1-2c-0.6-0.6-1.3-1-2.1-1c-0.7,0-1.4,0.3-1.7,0.8    c-0.2,0.3-0.4,0.8-0.2,1.5c-2.6-0.5-4.7-0.2-6.4,1.1l0,0c2.2-2.8,4.9-4.7,7.8-6.6c0,0.6,0.2,1,0.4,1.3c0.3,0.4,0.8,0.6,1.4,0.6    c1,0,1.9-0.6,2.4-1.5c0.5-0.9,0.5-1.6,0.5-2.2c0-0.5,0-0.9,0.3-1.1l0.1-0.1l-0.3-0.4l-0.2,0.1c-0.4,0.1-0.7,0-1.2-0.2    c-0.5-0.2-1.2-0.5-2.2-0.6l-0.1,0c-1.5,0-2.5,1-2.7,2c-0.1,0.8,0.3,1.4,1,1.8c-2.8,1.9-5.5,3.9-7.6,6.4c0.6-1.4,0.9-2.7,0.9-4    c0.3,0.1,0.6,0.2,0.9,0.2h0c0.7,0,1.2-0.4,1.5-1c0.3-0.8,0.3-2-0.5-2.9c-0.7-0.8-1.3-1-1.8-1.3c-0.5-0.2-0.8-0.4-0.9-0.7l-0.1-0.2    l-0.5,0.1l0,0.2c0,0.4-0.3,0.6-0.6,1c-0.4,0.4-0.9,0.9-1.3,1.8c-0.4,0.9-0.3,1.9,0.2,2.6c0.4,0.6,0.9,0.9,1.5,0.9    c0.3,0,0.8-0.1,1.2-0.5c0,1.8-0.7,3.8-2.2,6.2c-1.5,2.4-2.5,5.1-3.1,8.2V21.5c0-8.7,3.3-11.7,6.2-12.6c-0.2,0.7,0,1.2,0.2,1.5    c0.3,0.5,1,0.8,1.7,0.8c0.8,0,1.6-0.4,2.2-1c0.7-0.8,0.9-1.4,1-2c0.1-0.5,0.2-0.8,0.6-1l0.2-0.1l-0.2-0.5l-0.2,0    c-0.4,0-0.7-0.2-1.1-0.5c-0.4-0.4-1-0.8-2-1c-0.2-0.1-0.5-0.1-0.7-0.1c-1.2,0-2.2,0.7-2.5,1.6c-0.2,0.7,0,1.3,0.6,1.8    c-1.6,0.5-3,1.5-4,2.9c-1,1.3-1.7,3.1-2.1,5.2V8.3c0.4,0.2,0.7,0.3,1.1,0.3c0.6,0,1.2-0.4,1.5-1c0.5-0.8,0.4-2-0.2-2.8    c-0.5-0.8-1.1-1.2-1.6-1.5c-0.4-0.3-0.7-0.5-0.8-0.9l0-0.2l-0.5,0l0,0.2c-0.1,0.4-0.4,0.6-0.8,0.9c-0.5,0.3-1.1,0.7-1.6,1.6    c-0.5,0.9-0.6,2-0.1,2.8c0.3,0.6,0.9,0.9,1.5,0.9c0.4,0,0.7-0.1,1.1-0.3v8.2c-0.6-3.1-1.9-4.4-3.9-5.5c0.7-0.5,1-1.1,0.8-1.8    c-0.2-1-1.3-1.8-2.6-1.8c-0.1,0-0.3,0-0.4,0c-1,0.1-1.6,0.5-2.1,0.8c-0.4,0.3-0.7,0.5-1.1,0.4l-0.2,0l-0.2,0.5l0.2,0.1    c0.3,0.2,0.4,0.6,0.5,1.1c0.1,0.6,0.2,1.3,0.8,2.1c0.5,0.8,1.4,1.2,2.3,1.2c0.6,0,1.2-0.3,1.5-0.7c0.2-0.3,0.4-0.8,0.3-1.5    c2.9,1.5,4.1,3.6,4.1,10.9v11.1c-1-6.1-4.2-10.7-9.4-13.6c0.7-0.4,1.5-0.7,2.2-1c-0.1,0.7,0,1.2,0.2,1.5c0.3,0.5,0.9,0.7,1.6,0.7    c0.9,0,1.7-0.4,2.3-1.2c0.6-0.8,0.8-1.5,0.9-2c0.1-0.5,0.2-0.8,0.5-1.1l0.2-0.1l-0.2-0.5l-0.2,0c-0.4,0.1-0.7-0.1-1.1-0.4    c-0.5-0.3-1.1-0.7-2-0.9c-0.2,0-0.4,0-0.5,0c-1.2,0-2.3,0.7-2.5,1.7c-0.2,0.7,0.1,1.3,0.7,1.8c-0.9,0.3-1.7,0.7-2.5,1.1    c-0.8-0.4-1.6-0.8-2.5-1.1c0.6-0.5,0.8-1.1,0.7-1.8c-0.2-1-1.3-1.7-2.5-1.7c-0.2,0-0.4,0-0.5,0c-1,0.2-1.6,0.6-2,0.9    c-0.4,0.3-0.7,0.5-1.1,0.4l-0.2,0l-0.2,0.5l0.2,0.1c0.3,0.2,0.4,0.6,0.5,1.1c0.1,0.6,0.3,1.2,0.9,2c0.5,0.7,1.4,1.2,2.3,1.2    c0.7,0,1.2-0.3,1.6-0.7c0.2-0.3,0.4-0.8,0.2-1.5c0.8,0.3,1.5,0.6,2.2,1c-5.2,2.9-8.4,7.6-9.4,13.6V22.3c0-7.3,1.2-9.3,4.1-10.9    c-0.1,0.7,0.1,1.2,0.3,1.5c0.3,0.4,0.9,0.7,1.5,0.7c0.9,0,1.8-0.5,2.3-1.2c0.6-0.8,0.7-1.5,0.8-2.1c0.1-0.5,0.2-0.8,0.5-1.1    l0.2-0.1l-0.2-0.5l-0.2,0c-0.4,0.1-0.7-0.1-1.1-0.4c-0.5-0.3-1.1-0.7-2.1-0.8c-0.1,0-0.3,0-0.4,0c-1.2,0-2.3,0.8-2.6,1.8    c-0.2,0.7,0.1,1.4,0.8,1.8c-2,1.1-3.3,2.4-3.9,5.5V8.4c0.3,0.2,0.7,0.3,1.1,0.3c0.6,0,1.2-0.3,1.5-0.9c0.5-0.8,0.4-1.9-0.1-2.8    c-0.5-0.9-1.1-1.3-1.6-1.6c-0.4-0.3-0.7-0.5-0.8-0.9l0-0.2l-0.5,0l0,0.2c-0.1,0.4-0.4,0.6-0.8,0.9c-0.5,0.3-1.1,0.7-1.6,1.5    c-0.6,0.9-0.6,2-0.2,2.8c0.3,0.6,0.9,1,1.5,1c0.4,0,0.7-0.1,1.1-0.3v8.3c-0.4-2.1-1.1-3.8-2.1-5.2c-1.1-1.4-2.4-2.4-4-2.9    c0.6-0.5,0.8-1.2,0.6-1.8c-0.3-0.9-1.3-1.6-2.5-1.6c-0.2,0-0.5,0-0.7,0.1c-1,0.2-1.5,0.7-2,1c-0.4,0.3-0.7,0.5-1.1,0.5l-0.2,0    l-0.2,0.5l0.2,0.1c0.4,0.2,0.4,0.5,0.6,1c0.2,0.5,0.4,1.2,1,2c0.6,0.6,1.3,1,2.2,1c0.7,0,1.3-0.3,1.7-0.8c0.2-0.3,0.4-0.8,0.2-1.5    c3,0.9,6.2,3.8,6.2,12.6v10.3c-0.6-3.1-1.6-5.9-3.1-8.2c-1.5-2.4-2.2-4.4-2.2-6.2c0.5,0.4,0.9,0.5,1.2,0.5c0.6,0,1.1-0.3,1.5-0.9    c0.5-0.7,0.6-1.8,0.2-2.6c-0.4-0.9-0.9-1.4-1.3-1.8c-0.4-0.4-0.6-0.6-0.6-1l0-0.2l-0.5-0.1l-0.1,0.2c-0.1,0.4-0.5,0.5-0.9,0.7    c-0.5,0.2-1.2,0.5-1.8,1.3c-0.8,1-0.9,2.2-0.5,2.9c0.3,0.7,0.9,1,1.5,1h0c0.3,0,0.6-0.1,0.9-0.2c0,1.2,0.2,2.5,0.9,4    c-2.1-2.6-4.8-4.5-7.6-6.4c0.8-0.4,1.2-1.1,1-1.8c-0.2-1-1.2-2-2.7-2l-0.1,0c-1,0-1.6,0.3-2.2,0.6c-0.5,0.2-0.8,0.4-1.2,0.2    l-0.2-0.1l-0.3,0.4l0.1,0.1c0.3,0.3,0.3,0.6,0.3,1.1c0,0.6,0.1,1.3,0.5,2.2c0.5,0.9,1.4,1.5,2.4,1.5c0.6,0,1.1-0.2,1.4-0.6    c0.2-0.2,0.4-0.7,0.4-1.3c2.8,1.9,5.6,3.9,7.8,6.6l0,0c-1.7-1.3-3.8-1.7-6.4-1.1c0.2-0.7,0-1.2-0.2-1.5c-0.3-0.5-1-0.8-1.7-0.8    c-0.8,0-1.6,0.4-2.1,1c-0.7,0.7-0.9,1.4-1,2c-0.2,0.5-0.3,0.8-0.6,1l-0.2,0.1l0.2,0.5l0.2,0c0.4,0,0.7,0.2,1.1,0.5    c0.4,0.4,1,0.8,1.9,1.1c0.3,0.1,0.5,0.1,0.8,0.1h0c1.1,0,2.2-0.7,2.4-1.6c0.2-0.7,0-1.3-0.6-1.8c4.1-0.8,6.7,0.6,8.7,4.6    c1.7,3.5,2.4,7.7,2.4,12.8v17.8h-5.2v-5.3h-2.9c0-0.1,0-0.2,0-0.4c-0.1-0.6-0.4-0.9-1.6-1l0.6-1.5l0.5,0.1c0,0,0,0,0,0    c0.1,0,0.1,0,0.1-0.1c0.1,0,0.1-0.1,0.1-0.2l-0.1-1.5c2.2,2.2,6.5,6.9,6.5,7c0,0,0.1,0.1,0.2,0.1c0,0,0,0,0,0l0.7-0.1    c0.1,0,0.1-0.1,0.2-0.1c0-0.1,0-0.1,0-0.2l-4.7-8.3c1.9,1.3,3.4,2.4,3.4,2.4c0,0,0.1,0,0.1,0c0,0,0.1,0,0.1,0l0.4-0.2    c0.1,0,0.1-0.1,0.1-0.1c0-0.1,0-0.1,0-0.2c-1.6-3.2-6.2-11.6-8.3-14.2c0.6,0,1-0.5,1-1.1c0-0.6-0.5-1.1-1.1-1.1    c-0.2,0-0.4,0.1-0.6,0.2c-0.1-1.5-0.4-2.8-2.1-2.9c0.2-0.5,0.7-0.6,1-0.6l0-0.5c-0.2,0-0.6,0.1-0.9,0.3c0.2-0.7,0.6-0.9,1-0.9    l-0.1-0.5c-0.6,0.1-1,0.4-1.3,0.9c-0.2-0.5-0.6-0.8-1.3-0.9l-0.1,0.5c0.4,0.1,0.8,0.2,1,0.9c-0.3-0.3-0.7-0.3-0.9-0.3l0,0.5    c0.4,0,0.8,0.1,1,0.6c-0.9,0.1-1.6,0.7-1.7,1.4c-0.9,0-1.9,0.6-2,2.3l0.3,0.1c0.1-0.1,0.4-0.4,1.5-0.3l0.1,0l0,0.9    c-0.7,1-1.4,2.8-1.4,4.7c-0.1,1.5,0.2,3.6,2,5.1c0.3,0.3,0.9,0.6,1.3,0.9c0.2,0.9,1.4,3.4,2,4.8c0,0.1,0.1,0.1,0.1,0.1l-0.6,1.8    c-2.2,0-3.2,0.1-3.4,0.9c-0.3,0.9,0,2.2,1.1,2.8v3h-3.8c-1.1-4.1-1.2-8.1-1.1-10.8c0-1.4,0-2.8,0.1-4.2C246.8,30,247,16,244.5,5.3    c10.5-4,24.3-4.6,31.6-4.6c7.3,0,21.1,0.6,31.6,4.6C305.1,16,305.3,30,305.5,41.3z M298.4,21c-0.3-0.6-0.3-1.1,0-1.5    c0.2-0.4,0.7-0.6,1.3-0.6c0.7,0,1.3,0.3,1.8,0.8c0.6,0.7,0.8,1.3,1,1.8c0.1,0.4,0.2,0.8,0.5,1c-0.4,0.1-0.7,0.3-1,0.6    c-0.4,0.4-0.9,0.8-1.8,1c-0.2,0.1-0.4,0.1-0.7,0.1h0c-0.9,0-1.8-0.5-2-1.3c-0.2-0.6,0.1-1.2,0.8-1.6l0.2-0.1L298.4,21z     M299.6,14.6c-0.8-0.3-1.3-0.8-1.2-1.5c0.1-0.8,1-1.6,2.2-1.6l0,0c0.9,0,1.5,0.3,2,0.5c0.4,0.2,0.7,0.3,1.1,0.3    c-0.2,0.3-0.2,0.7-0.2,1.1c0,0.6-0.1,1.2-0.5,2c-0.4,0.8-1.2,1.3-2,1.3c-0.4,0-0.8-0.2-1-0.4c-0.3-0.3-0.4-0.8-0.3-1.4l0-0.2    L299.6,14.6z M292,16.6l-0.1,0.1c-0.4,0.5-0.8,0.7-1.2,0.7c-0.4,0-0.8-0.2-1.1-0.7c-0.4-0.6-0.5-1.5-0.2-2.2    c0.3-0.8,0.8-1.3,1.2-1.6c0.3-0.3,0.6-0.5,0.7-0.9c0.2,0.3,0.6,0.5,0.9,0.6c0.5,0.2,1.1,0.5,1.7,1.2c0.7,0.8,0.7,1.8,0.4,2.5    c-0.2,0.5-0.6,0.8-1.1,0.8h0c-0.3,0-0.7-0.1-1-0.3L292,16.6z M293.3,8.5c-0.7-0.4-1-1-0.8-1.6c0.2-0.7,1.1-1.3,2-1.3    c0.2,0,0.4,0,0.6,0.1c0.9,0.2,1.4,0.6,1.8,1c0.3,0.3,0.6,0.5,1,0.6c-0.3,0.3-0.4,0.6-0.5,1c-0.2,0.5-0.3,1.1-0.9,1.8    c-0.5,0.5-1.1,0.9-1.8,0.9c-0.6,0-1.1-0.2-1.3-0.6c-0.3-0.4-0.3-0.9,0-1.5l0.1-0.2L293.3,8.5z M281.4,11.2    c0.2,0.6,0.1,1.1-0.1,1.5c-0.2,0.3-0.7,0.5-1.2,0.5c-0.7,0-1.5-0.4-1.9-1.1c-0.5-0.7-0.6-1.4-0.7-1.9c-0.1-0.4-0.1-0.8-0.4-1.1    c0.4,0,0.7-0.2,1-0.5c0.5-0.3,1-0.6,1.9-0.8c0.1,0,0.2,0,0.4,0c1.1,0,2,0.7,2.1,1.5c0.1,0.6-0.2,1.2-1,1.6l-0.2,0.1L281.4,11.2z     M279.3,18.2c-0.8-0.4-1.1-1-0.9-1.6c0.2-0.7,1-1.4,2.1-1.4c0.2,0,0.3,0,0.5,0c0.9,0.2,1.4,0.5,1.9,0.8c0.3,0.2,0.6,0.4,1,0.5    c-0.2,0.3-0.3,0.7-0.4,1.1c-0.1,0.5-0.3,1.2-0.8,1.9c-0.5,0.6-1.2,1-1.9,1c-0.5,0-1-0.2-1.2-0.5c-0.3-0.4-0.3-0.9-0.1-1.5l0.1-0.2    L279.3,18.2z M272.7,18.5c0.2,0.6,0.2,1.1-0.1,1.5c-0.2,0.3-0.7,0.5-1.2,0.5c-0.7,0-1.4-0.4-1.9-1c-0.5-0.7-0.7-1.3-0.8-1.9    c-0.1-0.4-0.2-0.8-0.4-1.1c0.4-0.1,0.7-0.3,1-0.5c0.5-0.3,1-0.7,1.9-0.8c0.2,0,0.3,0,0.5,0c1.1,0,1.9,0.7,2.1,1.4    c0.2,0.6-0.2,1.2-0.9,1.6l-0.2,0.1L272.7,18.5z M270.6,10.9c-0.8-0.4-1.1-0.9-1-1.6c0.2-0.7,1-1.5,2.1-1.5c0.1,0,0.2,0,0.4,0    c0.9,0.1,1.4,0.5,1.9,0.8c0.4,0.2,0.7,0.4,1,0.5c-0.2,0.3-0.3,0.7-0.4,1.1c-0.1,0.5-0.2,1.2-0.7,1.9c-0.5,0.7-1.2,1.1-1.9,1.1    c-0.5,0-0.9-0.2-1.2-0.5c-0.3-0.4-0.3-0.9-0.1-1.5l0.1-0.2L270.6,10.9z M258.7,8.7c0.3,0.6,0.3,1.1,0,1.5    c-0.2,0.4-0.7,0.6-1.3,0.6c-0.7,0-1.3-0.3-1.8-0.9c-0.6-0.7-0.8-1.3-0.9-1.8c-0.1-0.4-0.2-0.8-0.5-1c0.4-0.1,0.7-0.3,1-0.6    c0.4-0.3,0.9-0.7,1.8-1c0.2-0.1,0.4-0.1,0.6-0.1c0.9,0,1.8,0.6,2,1.3c0.2,0.6-0.1,1.2-0.8,1.6l-0.2,0.1L258.7,8.7z M260.1,16.6    l-0.2,0.1c-0.4,0.2-0.7,0.3-1,0.3h0c-0.5,0-0.9-0.3-1.1-0.8c-0.3-0.6-0.3-1.6,0.4-2.5c0.6-0.7,1.2-0.9,1.7-1.2    c0.4-0.2,0.7-0.3,0.9-0.6c0.1,0.4,0.4,0.6,0.7,0.9c0.4,0.4,0.9,0.8,1.2,1.6c0.3,0.7,0.2,1.6-0.2,2.2c-0.3,0.4-0.7,0.7-1.1,0.7    c-0.4,0-0.8-0.2-1.2-0.7L260.1,16.6z M252.4,14.8c0.1,0.6,0,1.1-0.3,1.4c-0.2,0.3-0.6,0.4-1,0.4c-0.8,0-1.6-0.5-2-1.3    c-0.4-0.8-0.5-1.4-0.5-2c0-0.4,0-0.8-0.2-1.1c0.4,0,0.7-0.1,1.1-0.3c0.5-0.2,1.1-0.5,2-0.5l0,0c1.2,0,2.1,0.9,2.2,1.6    c0.1,0.7-0.3,1.2-1.2,1.5l-0.2,0.1L252.4,14.8z M253.8,21.2c0.7,0.5,1,1,0.8,1.6c-0.2,0.7-1.1,1.3-2,1.3h0c-0.2,0-0.4,0-0.7-0.1    c-0.9-0.2-1.4-0.6-1.8-1c-0.3-0.3-0.6-0.5-1-0.6c0.3-0.3,0.4-0.6,0.5-1c0.2-0.5,0.4-1.1,1-1.8c0.5-0.5,1.1-0.8,1.8-0.8    c0.6,0,1.1,0.2,1.3,0.6c0.3,0.4,0.2,0.9,0,1.5l-0.1,0.2L253.8,21.2z"/>
	</g>
	<circle class="st2" cx="255.7" cy="31.6" r="0.6"/>
	<circle class="st2" cx="276.3" cy="31.6" r="0.6"/>
	<circle class="st2" cx="295.6" cy="31.6" r="0.6"/>
</g>
<g>
	<path class="st4" d="M9.1,57.8H0V14.3h25v7.6H9.1v11.2h14.8v7.5H9.1V57.8z"/>
	<path class="st4" d="M68.8,57.8H58.3L46.9,39.5L43,42.3v15.5h-9.2V14.3H43v19.9l3.6-5.1l11.8-14.8h10.2L53.5,33.6L68.8,57.8z"/>
	<path class="st4" d="M83.6,57.8h-4.9V25.2h4.9V57.8z"/>
	<path class="st4" d="M117,57.8V36.7c0-2.7-0.6-4.6-1.8-6c-1.2-1.3-3.1-2-5.7-2c-3.4,0-5.9,0.9-7.5,2.8c-1.6,1.8-2.4,4.9-2.4,9.1   v17.1h-4.9V25.2h4l0.8,4.5h0.2c1-1.6,2.4-2.9,4.3-3.7c1.8-0.9,3.9-1.3,6.1-1.3c3.9,0,6.9,0.9,8.9,2.8c2,1.9,3,4.9,3,9.1v21.3H117z"/>
	<path class="st4" d="M144.2,54.3c0.9,0,1.7-0.1,2.5-0.2c0.8-0.1,1.5-0.3,1.9-0.4v3.8c-0.5,0.3-1.3,0.5-2.4,0.6   c-1,0.2-2,0.3-2.8,0.3c-6.3,0-9.5-3.3-9.5-10V29h-4.7v-2.4l4.7-2.1l2.1-7h2.9v7.6h9.5V29h-9.5v19.2c0,2,0.5,3.5,1.4,4.5   C141.3,53.8,142.5,54.3,144.2,54.3z"/>
	<path class="st4" d="M171.6,24.6c1.4,0,2.8,0.1,3.9,0.4l-0.7,4.6c-1.4-0.3-2.5-0.4-3.6-0.4c-2.6,0-4.9,1.1-6.8,3.2   c-1.9,2.1-2.8,4.8-2.8,8v17.5h-4.9V25.2h4.1l0.6,6h0.2c1.2-2.1,2.7-3.8,4.4-4.9C167.7,25.2,169.5,24.6,171.6,24.6z"/>
	<path class="st4" d="M200.1,57.8l-1-4.6h-0.2c-1.6,2-3.3,3.4-4.9,4.2c-1.6,0.7-3.6,1.1-6.1,1.1c-3.2,0-5.8-0.8-7.6-2.5   s-2.8-4-2.8-7.1c0-6.6,5.3-10,15.8-10.4l5.5-0.2v-2c0-2.6-0.6-4.5-1.7-5.7c-1.1-1.2-2.9-1.8-5.3-1.8c-2.7,0-5.8,0.8-9.2,2.5   l-1.5-3.8c1.6-0.9,3.4-1.6,5.3-2.1c1.9-0.5,3.8-0.7,5.8-0.7c3.9,0,6.8,0.9,8.7,2.6c1.9,1.7,2.8,4.5,2.8,8.3v22.3H200.1z M189,54.3   c3.1,0,5.5-0.8,7.3-2.5c1.8-1.7,2.6-4.1,2.6-7.1v-2.9l-4.9,0.2c-3.9,0.1-6.8,0.8-8.5,1.8c-1.7,1.1-2.6,2.8-2.6,5   c0,1.8,0.5,3.1,1.6,4.1S187,54.3,189,54.3z"/>
</g>
<circle class="st4" cx="81.2" cy="17.6" r="3.5"/>
<style xmlns="" type="text/css" id="undefined"/></svg>