<?xml version="1.0" encoding="UTF-8"?>
<!-- Generator: Adobe Illustrator 19.2.1, SVG Export Plug-In . SVG Version: 6.00 Build 0)  -->
<svg version="1.1" id="Layer_1" xmlns="http://www.w3.org/2000/svg" xmlns:xlink="http://www.w3.org/1999/xlink" x="0px" y="0px" viewBox="0 0 64 64" style="enable-background:new 0 0 64 64;" xml:space="preserve">
<style type="text/css">
	.st0{fill:#FFFFFF;}
</style>
<g>
	<path class="st0" d="M49.6,25.4c-3.7-3.1-8-4.1-13.5-1.9c-2.9,1.4-6.1,1.5-7.7,0.7c0,0-6.3-4.5-14.3,1.5c-8,5.9-7.3,21.6,1.9,33.5   c2.8,3.5,5.5,6.2,11.5,3.5c4.2-1.6,7-1.5,9.7,0.1c2.7,1.6,6.2,2,9.8-2.4C50.7,56.1,62.4,39.1,49.6,25.4z"/>
	<path class="st0" d="M47.6,0c-19,3.9-15.4,20-15.4,20C48.2,16.5,47.3,7.6,47.6,0z"/>
</g>
<style xmlns="" type="text/css" id="undefined"/></svg>