<?xml version="1.0" encoding="UTF-8"?>
<!-- Generator: Adobe Illustrator 19.2.1, SVG Export Plug-In . SVG Version: 6.00 Build 0)  -->
<svg version="1.1" id="Layer_1" xmlns="http://www.w3.org/2000/svg" xmlns:xlink="http://www.w3.org/1999/xlink" x="0px" y="0px" viewBox="0 0 82.5 146.6" style="enable-background:new 0 0 82.5 146.6;" xml:space="preserve">
<style type="text/css">
	.st0{fill:none;stroke:#FFFFFF;stroke-width:3.1;stroke-miterlimit:10;}
	.st1{fill:none;stroke:#FFFFFF;stroke-width:3.1;stroke-linejoin:bevel;stroke-miterlimit:10;}
</style>
<g>
	<path class="st0" d="M30.8,116l-3.3,10c-11.8,0-16.5,0.5-17.4,3.7c-1.4,4.7,0.4,10.8,5.9,13.3v-9.9h5.2c0,7.2,6.5,9.6,6.5,9.6v-9.6   h9.6v9.3c4.5-2.4,7-5.8,6.2-12.2c-0.4-2.3-0.8-4.3-8.4-4.3l2.4-8"/>
	<g>
		<path class="st0" d="M14.2,1.5C17.7,2.2,21,4.2,21,12.4"/>
		<path class="st0" d="M14.4,7.2c2.5,0.1,5.9,1.2,6.6,6"/>
		<path class="st0" d="M27.9,1.5C24.3,2.2,21,4.2,21,12.4"/>
		<path class="st0" d="M27.6,7.2c-2.5,0.1-5.9,1.2-6.6,6"/>
	</g>
	<path class="st1" d="M32,29.8c0-10.7-1.4-17.1-10.9-17.1c-5,0-9.4,3.3-9.4,7.1c0,3.1,0.5,6,5.4,10H32z"/>
	<path class="st1" d="M10.9,19.7c-2.2,0-8.7,1.1-9.5,10.8c0.7-1.6,2.3-3,8.2-2.2l0.9,1.1l-0.2,5.2C2.9,46.3-2.9,70.9,13.1,84.5   c6.4,5.2,17.7,10.7,28.1,21.1c10.4,10.4,37,39.6,37,39.6l2.9-1.7L54.6,96.2"/>
	<path class="st1" d="M15.1,57.3C14.2,67.6,17.4,71,32.2,81c19.1,12.8,44.4,30.6,44.4,30.6l1.8-1.2c-8.8-17.5-36-66.7-45-75.9   c-1.5-1.8-1.5-2.8-1.5-5.7"/>
	<polyline class="st0" points="31.5,39.1 31.1,44.6 25.6,43.5  "/>
	<polyline class="st0" points="38,50.1 37.6,55.6 32.2,54.6  "/>
	<polyline class="st0" points="45.1,61.4 44.6,66.9 39.2,65.9  "/>
	<polyline class="st0" points="22.8,49.2 22.4,54.7 17,53.7  "/>
	<polyline class="st0" points="29.8,61.4 29.4,67.2 23.8,66.1  "/>
	<polyline class="st0" points="40.5,71.8 40.1,77.1 34.7,76  "/>
	<polyline class="st0" points="52.1,74.3 51.7,79.8 46.5,78.8  "/>
	<polyline class="st0" points="59.8,85.5 59.4,90.6 54.4,89.7  "/>
	<circle class="st0" cx="36.4" cy="30.5" r="4.4"/>
	<path class="st1" d="M20.2,89.6c1,4.6,5.7,20.5,8.4,26.4l12.9,1.5l0-11.5"/>
</g>
<style xmlns="" type="text/css" id="undefined"/></svg>