<?xml version="1.0" encoding="utf-8"?>
<!-- Generator: Adobe Illustrator 19.2.1, SVG Export Plug-In . SVG Version: 6.00 Build 0)  -->
<svg version="1.1" id="Layer_1" xmlns="http://www.w3.org/2000/svg" xmlns:xlink="http://www.w3.org/1999/xlink" x="0px" y="0px"
	 viewBox="0 0 71.4 99.6" style="enable-background:new 0 0 71.4 99.6;" xml:space="preserve">
<style type="text/css">
	.st0{fill:#FFFFFF;}
</style>
<g id="Production">
	<g>
		<path class="st0" d="M63.3,51.8c8.1-4.2,8.1-10.9,8.1-11.2c0-1.4-1.1-2.5-2.5-2.5h-12v-9.8c0.4-1.5,1.7-3.2,6.4-5.6
			c8.1-4.2,8.1-10.9,8.1-11.2c0-1.4-1.1-2.5-2.5-2.5H56.8c-1.1-5.1-10.1-9-21.1-9c-11,0-20,3.9-21.1,9H2.5C1.1,9,0,10.1,0,11.5
			c0,0.3,0,7,8.1,11.2c4.6,2.4,6,4,6.4,5.6v9.8h-12c-1.4,0-2.5,1.1-2.5,2.5c0,0.3,0,7,8.1,11.2c4.6,2.4,6,4,6.4,5.6v9.8h-12
			c-1.4,0-2.5,1.1-2.5,2.5c0,0.3,0,7,8.1,11.2c4.6,2.4,6,4,6.4,5.6v9.4c0,2.1,1.7,3.8,3.8,3.8h34.8c2.1,0,3.8-1.7,3.8-3.8v-9.4
			c0.4-1.5,1.7-3.2,6.4-5.6c8.1-4.2,8.1-10.9,8.1-11.2c0-1.4-1.1-2.5-2.5-2.5h-12v-9.8C57.2,55.9,58.6,54.2,63.3,51.8z M35.7,90.2
			c-6.3,0-11.4-5.1-11.4-11.4c0-6.3,5.1-11.4,11.4-11.4c6.3,0,11.4,5.1,11.4,11.4C47.1,85.2,42,90.2,35.7,90.2z M35.7,61.1
			c-6.3,0-11.4-5.1-11.4-11.4c0-6.3,5.1-11.4,11.4-11.4c6.3,0,11.4,5.1,11.4,11.4C47.1,56,42,61.1,35.7,61.1z M35.7,32
			c-6.3,0-11.4-5.1-11.4-11.4c0-6.3,5.1-11.4,11.4-11.4c6.3,0,11.4,5.1,11.4,11.4C47.1,26.9,42,32,35.7,32z"/>
	</g>
</g>
</svg>
