<?xml version="1.0" encoding="UTF-8"?>
<!-- Generator: Adobe Illustrator 19.2.1, SVG Export Plug-In . SVG Version: 6.00 Build 0)  -->
<svg version="1.1" id="Layer_1" xmlns="http://www.w3.org/2000/svg" xmlns:xlink="http://www.w3.org/1999/xlink" x="0px" y="0px" viewBox="0 0 98 106.8" style="enable-background:new 0 0 98 106.8;" xml:space="preserve">
<style type="text/css">
	.st0{fill:#FFFFFF;}
</style>
<g id="Production">
	<path class="st0" d="M97.6,80.8c-8.5-15.5-27.1-19.7-41.6-6.2l-3.6-11c-0.4-1.3-2-1.7-3-0.7L39,73.6c-0.9,1-0.5,2.6,0.8,3l11,3.1   c-5,5.1-9,8.9-14.8,14.7c-8.3,8.2-16.9,7.6-21.5,2.9c-5.5-5.5-3.6-13.7,1.9-19.9l3.4,10.6c0.4,1.3,2,1.7,3,0.7l10.4-10.8   c0.9-1,0.5-2.6-0.8-3l-10.7-3l12.8-12.8c0,0,0,0,0,0l52.6-10.7c1.6-0.3,2.8-1.8,2.8-3.4V3.5C90,1.6,88.4,0,86.5,0H44.2   c-1.7,0-3.1,1.2-3.4,2.8l-10.3,52L17.4,68l-3.4-10.7c-0.4-1.3-2-1.7-3-0.7L0.5,67.4c-0.9,1-0.5,2.6,0.8,3L12,73.4   C2.9,83.6,3.6,95,10.2,101.7c6.8,6.8,19.2,7.7,30-2.9c5.7-5.6,9.7-9.5,14.7-14.6l3.3,10.3c0.4,1.3,2,1.7,3,0.7l10.4-10.8   c0.9-1,0.5-2.6-0.8-3l-10.3-2.9c11.5-10.1,25.2-6.9,31.7,5.2C94.2,87.1,99.5,84.3,97.6,80.8z"/>
</g>
</svg>