<?xml version="1.0" encoding="UTF-8"?>
<!-- Generator: Adobe Illustrator 19.2.1, SVG Export Plug-In . SVG Version: 6.00 Build 0)  -->
<svg version="1.1" id="Layer_1" xmlns="http://www.w3.org/2000/svg" xmlns:xlink="http://www.w3.org/1999/xlink" x="0px" y="0px" viewBox="0 0 84.4 99.8" style="enable-background:new 0 0 84.4 99.8;" xml:space="preserve">
<style type="text/css">
	.st0{fill:#FFFFFF;}
</style>
<g id="Production">
	<g>
		<path class="st0" d="M55.4,72.1c-7.6,0.1-13.8,6.3-13.7,14c0.1,7.6,6.3,13.8,14,13.7c7.7-0.1,13.8-6.3,13.7-14    C69.4,78.2,63.1,72,55.4,72.1z"/>
		<path class="st0" d="M83.6,11c-1.2-1.9-3.7-2.6-5.7-1.8c-0.8,0.3-0.4,0.2-11.5,7.4c-7.7,0.1-55.6,0.5-61.7,0.6    c-2.9,0-5.2,2.7-4.6,5.6c0.4,2.2,2.4,3.9,4.7,3.9l2.5,0L19,89.6c0.8,4.1,4.4,7.1,8.6,7.1l13-0.1c-2.2-3.1-3.4-6.7-3.4-10.4    c-0.1-10.1,8-18.4,18.2-18.5c3.6,0,7.1,1,10.1,2.9L69.2,26c11-7.1,7.4-4.8,13-8.4C84.4,16.2,85,13.2,83.6,11z"/>
		<path class="st0" d="M55.3,2.5C52.9,2.2,27,0.7,17.8,0C14-0.2,11.2,0.9,9.3,2.9c-2.2,2.2-3.2,5.5-3.1,9c4.6,0,44-0.4,60.1-0.5    C66.2,5.2,61.2,3,55.3,2.5z"/>
	</g>
</g>
</svg>